<svg width="887" height="239" viewBox="0 0 887 239" fill="none" xmlns="http://www.w3.org/2000/svg">
<path fill-rule="evenodd" clip-rule="evenodd" d="M4.42903 4.36781L8.00003 7.73581V117.968V228.2L4.60004 231.6L1.20003 235L36.35 234.996L71.5 234.993L68.225 232.996C66.424 231.898 64.511 229.845 63.975 228.434C62.648 224.945 62.648 11.0548 63.975 7.56581C64.511 6.15481 66.424 4.10181 68.225 3.00381L71.5 1.00681L36.179 1.00381L0.858032 0.999809L4.42903 4.36781ZM115.102 3.26981C118.444 5.50381 119.122 7.39981 156.542 119.332C177.464 181.918 195.239 233.539 196.042 234.047C198.336 235.498 224.312 235.242 226.193 233.75C227.571 232.656 252.423 160.09 251.675 159.342C251.517 159.184 247.882 163.767 243.597 169.528C239.313 175.288 235.439 180.229 234.989 180.507C234.539 180.785 220.818 140.955 204.498 91.9948C182.73 26.6898 174.334 2.71381 172.979 1.98881C171.88 1.40081 159.085 0.999809 141.418 0.999809H111.704L115.102 3.26981ZM305.843 2.24981C304.996 2.93781 300.185 15.7088 295.151 30.6298L286 57.7608V141.93C286 233.956 286.238 230.179 280.237 233.435C277.773 234.772 281.038 234.92 313 234.92C344.262 234.92 348.187 234.75 345.881 233.497C344.441 232.714 342.523 230.514 341.618 228.608C340.118 225.447 339.997 215.586 340.237 116.494L340.5 7.84581L344.235 4.42281L347.971 0.999809H327.676C312.929 0.999809 306.961 1.34181 305.843 2.24981ZM604 32.4998V63.9998H611H618V32.4998V0.999809H611H604V32.4998ZM633 31.9998V62.9998H640H647V52.9998V42.9998H651.947H656.895L663.697 52.9638L670.5 62.9288L678.25 62.9638C682.513 62.9838 686 62.8108 686 62.5798C686 62.3488 683.591 58.6358 680.647 54.3298C670.859 40.0118 671.354 41.6928 676.02 38.6058C678.252 37.1288 680.948 34.4898 682.01 32.7428C686.615 25.1708 685.311 13.3408 679.222 7.42681C673.816 2.17681 668.34 0.999809 649.318 0.999809H633V31.9998ZM697 31.9998V62.9998H704H711L711.027 53.7498C711.054 44.5318 711.067 44.4868 714.647 40.6338C716.622 38.5078 718.523 37.1878 718.869 37.7008C719.216 38.2138 723.486 44.1158 728.358 50.8168L737.215 62.9998H745.108C749.448 62.9998 753 62.7768 753 62.5048C753 62.2318 747.375 54.4078 740.5 45.1178C733.625 35.8268 728 27.8938 728 27.4888C728 27.0828 733.494 21.0698 740.21 14.1258L752.419 1.49981L744.46 1.20181L736.5 0.903809L731.498 6.20181C728.747 9.11581 723.01 15.2498 718.748 19.8328L711 28.1658V14.5828V0.999809H704H697V31.9998ZM784.355 4.70381C783.486 6.79181 777.65 20.5198 771.387 35.2108C765.124 49.9008 760 62.1638 760 62.4608C760 62.7568 763.079 62.9998 766.842 62.9998H773.684L776.441 55.9718L779.199 48.9428L792.32 49.2218L805.44 49.4998L808.147 55.9998L810.854 62.4998L817.927 62.7938C821.817 62.9548 825 62.9048 825 62.6828C825 62.4598 819.189 48.6028 812.088 31.8888L799.175 1.49981L792.556 1.20381L785.937 0.906807L784.355 4.70381ZM834 6.97581V12.9518L850.572 13.2258L867.144 13.4998L850.072 33.3008L833 53.1028V58.0508V62.9998H859H885V56.9998V50.9998H868.5C859.425 50.9998 852 50.7628 852 50.4738C852 50.1848 859.425 41.2998 868.5 30.7288L885 11.5108V6.25481V0.999809H859.5H834V6.97581ZM450.35 3.98481C419.212 12.1468 392.671 35.4448 379.001 66.6148C352.474 127.1 376.905 200.072 432.381 226.055C444.663 231.808 453.763 234.045 467.5 234.688C495.654 236.008 518.84 227.318 539.641 207.652C544.896 202.684 549 197.993 549 196.953C549 195.441 548.312 195.74 545.25 198.584C529.157 213.525 506.656 219.838 485.254 215.417C459.519 210.102 439.506 190.94 432.961 165.347C431.132 158.194 431 154.046 431 103.5C431 53.2298 431.139 48.7748 432.932 41.7658C436.345 28.4198 443.243 17.0458 453.84 7.28881C456.953 4.42281 459.05 2.08481 458.5 2.09381C457.95 2.10281 454.282 2.95381 450.35 3.98481ZM543.634 4.62381C533.286 10.0088 518.541 11.1738 506.525 7.55681L501.656 6.09181L505.578 9.20181C526.442 25.7438 542.245 53.1908 547.448 81.9218C548.711 88.8948 548.828 86.0058 548.91 45.7498C548.96 21.6878 548.888 2.02081 548.75 2.04681C548.612 2.07181 546.311 3.23181 543.634 4.62381ZM647 21.9998V30.9998H655.453C664.911 30.9998 668.26 29.9198 669.89 26.3428C673.809 17.7418 668.092 13.0168 653.75 13.0058L647 12.9998V21.9998ZM790.614 21.0958C789.837 22.9678 788.062 27.3128 786.67 30.7498L784.14 36.9998H792.07C796.432 36.9998 800 36.7498 800 36.4428C800 35.7208 792.937 18.6258 792.42 18.0958C792.204 17.8748 791.391 19.2248 790.614 21.0958ZM603 119.5V149H609.5H616L616.005 130.25L616.011 111.5L623.755 123.226C628.015 129.676 631.84 134.85 632.255 134.725C632.67 134.599 636.607 129.097 641.003 122.498L648.997 110.5L648.998 129.75L649 149H655.5H662V119.456V89.9118L654.806 90.2058L647.611 90.4998L640.383 101.974C636.408 108.285 632.783 113.557 632.328 113.69C631.873 113.823 628.215 108.547 624.201 101.966L616.901 89.9998H609.951H603V119.5ZM676 119.481V149H698.5H721V143V137H705H689V131V125H703H717V119.528V114.056L703.25 113.778L689.5 113.5L689.201 107.776L688.902 102.051L704.701 101.776L720.5 101.5V95.9998V90.4998L698.25 90.2308L676 89.9618V119.481ZM728 95.9998V102H737H746V125.5V149H752.5H759V125.5V102H768H777V95.9998V89.9998H752.5H728V95.9998ZM798.694 90.7048C798.301 91.3538 776.051 143.369 774.271 147.799C773.867 148.803 775.274 149.029 780.483 148.799L787.218 148.5L789.715 142.25L792.212 136L804.856 136.011L817.5 136.022L820.009 142.261L822.517 148.5L829.259 148.796C832.966 148.958 836 148.958 836 148.795C836 148.632 830.45 135.449 823.667 119.499L811.334 90.4998L805.254 90.2048C801.91 90.0418 798.958 90.2668 798.694 90.7048ZM844.452 91.2628C844.186 91.9578 844.087 105.121 844.234 120.513L844.5 148.5L865.75 148.77L887 149.04V143.02V137H872H857V113.5V89.9998H850.969C847.032 89.9998 844.769 90.4388 844.452 91.2628ZM800.776 114.983L797.185 124H804.593C808.667 124 812 123.787 812 123.526C812 122.534 805.815 107.464 805.108 106.733C804.7 106.311 802.75 110.024 800.776 114.983ZM114.609 161.697C101.788 200.292 100.796 203.812 101.268 209.019C102.154 218.791 107.365 226.671 116.167 231.546C120.763 234.092 122.536 234.496 129 234.475C135.172 234.454 137.414 233.972 141.659 231.754C151.294 226.72 157.79 215.317 156.773 205.221C156.282 200.341 130.17 120 129.075 120C128.737 120 122.227 138.764 114.609 161.697ZM620.882 176.381C607.798 181.056 600.804 190.957 600.667 205C600.581 213.781 602.701 219.449 608.451 225.814C619.277 237.797 642.142 238.446 652.444 227.061C654.385 224.917 654.383 224.912 650.225 220.754L646.063 216.592L643.781 218.671C634.681 226.964 620.826 224.434 615.896 213.579C612.17 205.375 614.527 194.609 621.068 189.952C623.347 188.329 626.184 187.47 630.227 187.177C635.432 186.801 636.64 187.099 641.068 189.851L646.051 192.949L649.776 188.854C651.824 186.601 653.646 184.374 653.825 183.904C654.276 182.72 645.329 177.186 641.035 175.993C636.109 174.625 625.209 174.834 620.882 176.381ZM679.5 176.767C672.72 178.997 663.978 187.659 661.676 194.428C659.806 199.926 659.502 208.667 660.993 214.035C663.548 223.229 672.072 231.596 681.463 234.125C687.391 235.721 696.189 235.43 702.181 233.44C709.551 230.992 717.937 222.515 720.29 215.135C724.09 203.214 721.605 192.525 713.04 183.96C708.965 179.886 706.081 177.968 702.135 176.71C695.465 174.584 686.068 174.608 679.5 176.767ZM733.235 205.25L733.5 234.5L739.75 234.798L746 235.095V225.548V216H751.368H756.736L763 225.5L769.264 235H776.632C780.684 235 784 234.831 784 234.624C784 234.417 780.857 229.615 777.015 223.952L770.031 213.656L773.655 211.468C779.246 208.094 781.989 202.743 781.995 195.2C782 188.499 780.65 184.863 776.831 181.298C771.955 176.745 768.185 176 750.017 176H732.97L733.235 205.25ZM794.235 205.25L794.5 234.5L800.75 234.798L807 235.095V226.048V217H813.818C823.275 217 830.606 214.629 835.126 210.109C844.512 200.724 841.879 184.419 830 178.354C825.878 176.249 824.177 176.054 809.735 176.028L793.97 176L794.235 205.25ZM682.024 189.186C671.807 196.126 670.346 209.582 678.882 218.118C685.562 224.797 694.926 225.299 701.99 219.355C706.285 215.741 708.274 211.404 708.334 205.526C708.441 194.891 702.015 187.841 691.63 187.202C686.457 186.884 684.957 187.193 682.024 189.186ZM746.667 187.667C746.3 188.033 746 191.858 746 196.167V204H755.045C763.316 204 764.301 203.79 766.545 201.545C769.16 198.931 769.787 194.339 767.988 190.978C767.432 189.938 765.294 188.62 763.238 188.049C759.074 186.893 747.703 186.63 746.667 187.667ZM807.667 187.667C807.3 188.033 807 192.083 807 196.667V205H814.365C820.231 205 822.251 204.59 824.288 202.988C829.933 198.548 828.189 189.98 821.248 188.052C817.042 186.884 808.686 186.647 807.667 187.667ZM856.615 216.088C848.204 222.705 850.324 234.642 860.508 238.003C870.426 241.276 879.468 229.607 874.483 219.967C871.454 214.11 861.795 212.013 856.615 216.088Z" fill="white"/>
</svg>
