<svg width="24" height="24" viewBox="0 0 24 24" fill="none" xmlns="http://www.w3.org/2000/svg">
<path d="M8.99971 17.5C10.6543 17.5019 12.2707 17.0183 13.65 16.1126L14.737 18.7434L14.7561 18.7895L14.7913 18.8247L18.592 22.6257C18.8589 22.8927 19.1759 23.1045 19.5247 23.249C19.8735 23.3935 20.2474 23.4679 20.6249 23.4679C21.0025 23.4679 21.3763 23.3935 21.7252 23.2491C22.074 23.1046 22.3909 22.8928 22.6579 22.6259C22.9249 22.3589 23.1367 22.042 23.2812 21.6931C23.4257 21.3443 23.5 20.9705 23.5001 20.5929C23.5001 20.2154 23.4257 19.8415 23.2812 19.4927C23.1368 19.1438 22.925 18.8269 22.658 18.5599L22.4949 18.7231L22.658 18.5599L18.8572 14.7591L18.822 14.7239L17.5 9H17.25L17.5 8.99972C17.4998 4.3127 13.6871 0.5 9 0.5C4.31285 0.5 0.5 4.31285 0.5 9C0.5 13.6871 4.3127 17.4998 8.99971 17.5ZM8.99971 17.5L9 17.25V17.5C8.9999 17.5 8.99981 17.5 8.99971 17.5ZM20.625 21.4673C20.857 21.4673 21.0795 21.3753 21.2437 21.2115C21.4075 21.0473 21.4995 20.8248 21.4995 20.5928C21.4995 20.3609 21.4076 20.1384 21.2438 19.9741L20.625 21.4673ZM20.625 21.4673C20.3929 21.4673 20.1703 21.3752 20.0061 21.2113L16.4522 17.6575L15.5811 15.5489L17.6897 16.42L21.2436 19.9739L20.625 21.4673ZM15.9936 13.8258L15.7569 13.728C15.806 13.6583 15.8538 13.5879 15.9006 13.5169L16.1357 13.614C16.0895 13.6853 16.0421 13.7559 15.9936 13.8258ZM13.5527 15.8772C13.6236 15.8301 13.6939 15.7818 13.7634 15.7323L13.8613 15.9692L13.5527 15.8772ZM2.5 9C2.5 5.4162 5.4162 2.5 9 2.5C12.5838 2.5 15.5 5.4162 15.5 9C15.5 12.5838 12.5838 15.5 9 15.5C5.4162 15.5 2.5 12.5838 2.5 9Z" fill="#58595B" stroke="#58595B" stroke-width="0.5"/>
</svg>
