<svg width="16" height="24" viewBox="0 0 16 24" fill="none" xmlns="http://www.w3.org/2000/svg">
<path d="M14.8203 13.6641C15.2734 14.5547 15.5 15.5 15.5 16.5C15.5 17.1875 15.4102 17.8516 15.2305 18.4922C15.0508 19.1328 14.8008 19.7305 14.4805 20.2852C14.1602 20.8398 13.7695 21.3438 13.3086 21.7969C12.8477 22.25 12.3398 22.6406 11.7852 22.9688C11.2305 23.2969 10.6328 23.5508 9.99219 23.7305C9.35156 23.9102 8.6875 24 8 24C7.3125 24 6.64844 23.9102 6.00781 23.7305C5.36719 23.5508 4.76953 23.3008 4.21484 22.9805C3.66016 22.6602 3.15625 22.2695 2.70312 21.8086C2.25 21.3477 1.85938 20.8398 1.53125 20.2852C1.20312 19.7305 0.949219 19.1328 0.769531 18.4922C0.589844 17.8516 0.5 17.1875 0.5 16.5C0.5 15.5078 0.71875 14.5664 1.15625 13.6758L7.94141 0L14.8203 13.6641Z" fill="#00878A"/>
</svg>
